
        <svg xmlns="http://www.w3.org/2000/svg" xmlns:xlink="http://www.w3.org/1999/xlink" version="1.1" width="3052.4429802380855" 
        height="3309.278350515464" viewBox="0 0 3052.4429802380855 3309.278350515464">
			<rect fill="#14b8a6" width="3052.4429802380855" height="3309.278350515464"/>
			<g transform="scale(15.463917525773196) translate(10, 10)">
				<defs id="SvgjsDefs2648"></defs><g id="SvgjsG2649" featureKey="JiLV9t-0" transform="matrix(1.428511174466322,0,0,1.428511174466322,17.576547445693805,-14.285196209397123)" fill="#ffffff"><rect xmlns="http://www.w3.org/2000/svg" x="25.249" y="20.252" transform="matrix(0.7071 0.7071 -0.7071 0.7071 46.463 -22.1737)" fill="none" stroke="#ffffff" stroke-width="2" stroke-linecap="round" stroke-linejoin="round" stroke-miterlimit="10" width="49.499" height="49.497"></rect><path xmlns="http://www.w3.org/2000/svg" stroke="#ffffff" stroke-width="2" stroke-linecap="round" stroke-linejoin="round" stroke-miterlimit="10" d="M49.999,69.395  l24.394-24.392L50,20.608L25.608,45.002L49.999,69.395z M63.785,45.002L49.999,58.787L36.214,45.002L50,31.215L63.785,45.002z"></path><rect xmlns="http://www.w3.org/2000/svg" x="47.754" y="42.754" transform="matrix(-0.707 0.7072 -0.7072 -0.707 117.1804 41.4576)" stroke="#ffffff" stroke-width="2" stroke-linecap="round" stroke-linejoin="round" stroke-miterlimit="10" width="4.496" height="4.497"></rect><polygon xmlns="http://www.w3.org/2000/svg" stroke="#ffffff" stroke-width="2" stroke-linecap="round" stroke-linejoin="round" stroke-miterlimit="10" points="  49.999,80 20,50.004 15.002,55 49.999,90 85,55 80,50 "></polygon></g><g id="SvgjsG2650" featureKey="Yxc9Rz-0" transform="matrix(4.207573846396766,0,0,4.207573846396766,-6.395513671015649,108.58625412826973)" fill="#ffffff"><path d="M12.28 19.22 q-0.68 0.96 -2.12 0.96 q-0.82 0 -1.23 -0.42 t-0.71 -1.42 l-0.76 -2.34 q-0.3 -0.94 -0.72 -1.34 t-1.14 -0.4 q-0.24 0 -0.88 0.04 l0 5.7 q-0.62 0.12 -1.6 0.12 t-1.6 -0.12 l0 -13.66 q0.62 -0.12 1.6 -0.12 t1.6 0.12 l0 5.28 l0.52 -0.02 q0.36 0 0.52 -0.13 t0.38 -0.55 l1.9 -3.58 q0.3 -0.62 0.64 -0.87 t1.06 -0.25 q0.8 0 1.86 0.1 l0.18 0.22 l-2.44 4.6 q-0.46 0.92 -1.12 1.46 q0.94 0.2 1.41 0.76 t0.79 1.5 l0.82 2.48 q0.16 0.46 0.24 0.68 t0.4 0.74 q0.14 0.2 0.4 0.46 z M13.98 20 l0 -13.66 q0.62 -0.12 1.6 -0.12 t1.62 0.12 l0 13.66 q-0.64 0.12 -1.62 0.12 t-1.6 -0.12 z M20.419999999999998 6.300000000000001 q1.62 -0.04 2.77 -0.06 t1.85 -0.02 q2.18 0 3.43 0.91 t1.25 2.73 q0 0.88 -0.5 1.64 t-1.28 1.1 q0.5 0.16 0.95 0.51 t0.77 0.82 t0.51 1.02 t0.19 1.13 q0 2.06 -1.31 3.05 t-3.71 0.99 q-0.74 0 -1.96 -0.02 t-2.96 -0.06 l-0.14 -0.14 l0 -13.46 z M25.099999999999998 13.98 l-1.66 0 l0 3.9 q0.52 -0.02 1.17 0 t1.21 -0.1 t0.94 -0.58 t0.38 -1.28 q0 -0.78 -0.49 -1.36 t-1.55 -0.58 z M23.439999999999998 8.48 l0 3.22 l1.42 0 q0.96 0 1.35 -0.47 t0.39 -1.15 t-0.4 -1.13 t-1.34 -0.45 l-0.81 0 t-0.61 -0.02 z M35.54 16.28 q0.54 1.56 2.18 1.56 q0.82 0 1.33 -0.41 t0.8 -1.04 t0.39 -1.41 t0.1 -1.54 q0 -0.7 -0.05 -1.56 t-0.29 -1.61 t-0.76 -1.26 t-1.52 -0.51 q-0.96 0 -1.47 0.49 t-0.76 1.21 t-0.31 1.53 t-0.06 1.43 q0 0.92 0.09 1.64 t0.33 1.48 z M33.92 19.04 q-2.14 -1.78 -2.14 -5.86 q0 -1.76 0.41 -3.09 t1.18 -2.23 t1.87 -1.36 t2.48 -0.46 t2.49 0.46 t1.88 1.37 t1.18 2.24 t0.41 3.07 t-0.41 3.07 t-1.18 2.23 t-1.88 1.36 t-2.49 0.46 q-2.28 0 -3.8 -1.26 z"></path></g>
			</g>
		</svg>
	